<svg xmlns="http://www.w3.org/2000/svg" width="56" height="56"><defs><style>.c{fill:#b3c100}</style></defs><g fill="none"><path d="M28 0A28 28 0 110 28 28 28 0 0128 0z"/><path d="M28 2A25.916 25.916 0 009.615 9.615 25.916 25.916 0 002 28a25.916 25.916 0 007.615 18.385A25.916 25.916 0 0028 54a25.916 25.916 0 0018.385-7.615A25.916 25.916 0 0054 28a25.916 25.916 0 00-7.615-18.385A25.916 25.916 0 0028 2m0-2c15.464 0 28 12.536 28 28S43.464 56 28 56 0 43.464 0 28 12.536 0 28 0z" fill="#b3c100"/></g><path stroke="#b3c100" stroke-width="2" fill="none" d="M39.391 33.88v9.219"/><path class="c" d="M33.723 32.293c2 0 5.608.5 5.608 1.667s-3.6 2.565-5.608 2.565-3.627-.948-3.627-2.116 1.624-2.116 3.627-2.116z"/><path class="c" d="M44.923 32.293c-2.008 0-5.608.5-5.608 1.667s3.6 2.565 5.608 2.565 3.627-.947 3.627-2.116-1.624-2.116-3.627-2.116z"/><g><path class="c" d="M16.614 11.83h23.742v3.225h-19.64v10.663h13.916v3.329H20.716v12.019h24.066v3.225H16.614z"/><path class="c" d="M7.782 11.86h9.124v3.072h-3.632v26.372h3.809v3.017H7.575v-3.069h3.632v-26.32H7.782z"/></g></svg>